<?xml version="1.0" encoding="UTF-8" standalone="no"?>
<!-- Created with Inkscape (http://www.inkscape.org/) -->

<svg
   width="221.01311mm"
   height="221.01311mm"
   viewBox="0 0 221.01311 221.01311"
   version="1.1"
   id="svg5"
   inkscape:export-filename="/home/stephen/workspace/stephenfluin/scaling-ethereum-synctool/marketing/logo-square.png"
   inkscape:export-xdpi="235.36703"
   inkscape:export-ydpi="235.36703"
   inkscape:version="1.1.2 (0a00cf5339, 2022-02-04)"
   sodipodi:docname="logo-square.svg"
   xmlns:inkscape="http://www.inkscape.org/namespaces/inkscape"
   xmlns:sodipodi="http://sodipodi.sourceforge.net/DTD/sodipodi-0.dtd"
   xmlns="http://www.w3.org/2000/svg"
   xmlns:svg="http://www.w3.org/2000/svg">
  <sodipodi:namedview
     id="namedview7"
     pagecolor="#ffffff"
     bordercolor="#666666"
     borderopacity="1.0"
     inkscape:pageshadow="2"
     inkscape:pageopacity="0.0"
     inkscape:pagecheckerboard="0"
     inkscape:document-units="mm"
     showgrid="false"
     fit-margin-top="0"
     fit-margin-left="0"
     fit-margin-right="0"
     fit-margin-bottom="0"
     inkscape:zoom="0.77771465"
     inkscape:cx="412.10488"
     inkscape:cy="563.83148"
     inkscape:window-width="3840"
     inkscape:window-height="2039"
     inkscape:window-x="3840"
     inkscape:window-y="0"
     inkscape:window-maximized="1"
     inkscape:current-layer="text2562" />
  <defs
     id="defs2">
    <rect
       x="20.098452"
       y="66.86422"
       width="754.45721"
       height="355.21439"
       id="rect2564" />
  </defs>
  <g
     inkscape:label="Layer 1"
     inkscape:groupmode="layer"
     id="layer1"
     transform="translate(4.0833206,0.5480423)">
    <circle
       style="fill:#ff0000;stroke-width:0.264583"
       id="path23942"
       cx="106.42323"
       cy="109.95851"
       r="110.50655" />
    <g
       aria-label="Blockchain
SyncTool"
       transform="matrix(0.33832557,0,0,0.33832557,-25.977484,41.229787)"
       id="text2562"
       style="font-size:96px;line-height:1.25;white-space:pre;shape-inside:url(#rect2564);fill:#ffffff">
      <path
         d="m 117.96788,144.3233 h -1.056 c -2.4,0 -3.264,0.192 -4.224,0.672 -1.536,0.96 -2.496,2.592 -2.496,4.224 0,1.536 0.864,3.168 2.112,4.032 0.96,0.672 2.4,0.96 4.608,0.96 h 28.32 c 11.616,0 19.296,-5.952 19.296,-15.072 0,-5.664 -3.264,-10.176 -9.792,-13.248 3.936,-2.976 5.664,-6.144 5.664,-10.368 0,-8.928 -8.16,-15.456 -19.2,-15.456 h -24.288 c -2.4,0 -3.36,0.192 -4.224,0.672 -1.536,0.864 -2.496,2.592 -2.496,4.224 0,1.632 0.864,3.168 2.112,4.032 1.056,0.768 2.112,0.96 4.608,0.96 h 1.056 z m 10.368,-22.176 v -12.192 h 12.384 c 5.856,0 9.312,2.112 9.312,5.472 0,4.032 -4.608,6.72 -11.232,6.72 z m 0,22.176 v -12.288 h 12.576 c 3.936,0 6.912,0.672 9.312,2.016 2.304,1.344 3.936,3.648 3.936,5.664 0,3.072 -3.168,4.608 -9.408,4.608 z"
         style="font-weight:bold;font-family:'Nimbus Mono PS';-inkscape-font-specification:'Nimbus Mono PS Bold';text-align:center;text-anchor:middle"
         id="path828" />
      <path
         d="m 200.91173,96.323299 h -17.472 c -2.496,0 -3.36,0.192 -4.32,0.672 -1.536,0.96 -2.496,2.592 -2.496,4.320001 0,1.632 0.768,3.072 2.208,4.032 0.96,0.768 2.112,0.96 4.608,0.96 h 7.104 v 38.016 h -11.328 c -2.496,0 -3.264,0.096 -4.224,0.672 -1.536,0.96 -2.496,2.592 -2.496,4.224 0,3.264 2.304,4.992 6.72,4.992 h 33.024 c 4.416,0 6.72,-1.728 6.72,-4.992 0,-1.536 -0.768,-2.976 -2.112,-3.936 -1.056,-0.768 -2.016,-0.96 -4.608,-0.96 h -11.328 z"
         style="font-weight:bold;font-family:'Nimbus Mono PS';-inkscape-font-specification:'Nimbus Mono PS Bold';text-align:center;text-anchor:middle"
         id="path830" />
      <path
         d="m 253.61559,112.2593 c -14.4,0 -25.44,9.408 -25.44,21.696 0,12.192 11.04,21.696 25.152,21.696 14.112,0 25.152,-9.504 25.152,-21.696 0,-12.096 -11.04,-21.696 -24.864,-21.696 z m -0.48,9.888 c 8.544,0 14.976,5.088 14.976,11.808 0,6.624 -6.432,11.808 -14.784,11.808 -8.352,0 -14.784,-5.184 -14.784,-11.808 0,-6.624 6.432,-11.808 14.592,-11.808 z"
         style="font-weight:bold;font-family:'Nimbus Mono PS';-inkscape-font-specification:'Nimbus Mono PS Bold';text-align:center;text-anchor:middle"
         id="path832" />
      <path
         d="m 334.35144,118.6913 c 0,-4.416 -1.536,-6.432 -4.992,-6.432 -2.112,0 -3.168,0.768 -3.84,2.592 -3.648,-1.728 -8.352,-2.592 -13.632,-2.592 -14.688,0 -24.96,9.312 -24.96,22.656 0,5.664 2.016,10.56 5.952,14.304 4.8,4.512 10.848,6.432 20.256,6.432 7.104,0 13.248,-1.056 17.184,-2.976 4.224,-2.016 6.432,-4.512 6.432,-7.104 0,-2.688 -2.304,-4.992 -5.184,-4.992 -1.248,0 -2.208,0.384 -3.168,1.152 -3.84,3.168 -6.912,4.032 -14.592,4.032 -11.04,0 -16.512,-3.648 -16.512,-10.848 0,-7.776 5.76,-12.768 14.688,-12.768 4.128,0 7.488,0.768 9.888,2.304 1.152,0.672 1.728,1.44 2.016,2.976 0.48,2.112 0.768,2.688 1.536,3.36 0.864,0.768 2.4,1.344 3.744,1.344 1.632,0 3.168,-0.768 4.224,-2.016 0.768,-0.96 0.96,-1.92 0.96,-4.416 z"
         style="font-weight:bold;font-family:'Nimbus Mono PS';-inkscape-font-specification:'Nimbus Mono PS Bold';text-align:center;text-anchor:middle"
         id="path834" />
      <path
         d="m 360.75129,138.9473 1.344,-0.96 9.312,7.872 c -0.96,1.248 -1.344,2.112 -1.344,3.36 0,3.264 2.304,4.992 6.72,4.992 h 11.328 c 4.512,0 6.816,-1.632 6.816,-4.992 0,-1.632 -0.768,-3.072 -2.112,-4.032 -1.056,-0.768 -2.016,-0.864 -4.704,-0.864 h -3.072 l -14.88,-12.576 10.944,-8.448 h 2.496 c 2.304,0 3.36,-0.096 4.224,-0.672 1.536,-0.96 2.496,-2.496 2.496,-4.224 0,-1.632 -0.768,-3.072 -2.112,-4.032 -1.056,-0.768 -1.92,-0.96 -4.608,-0.96 h -10.752 c -2.4,0 -3.456,0.192 -4.32,0.672 -1.536,0.96 -2.496,2.592 -2.496,4.224 0,1.344 0.384,2.304 1.344,3.456 l -6.624,4.992 V 96.323299 h -11.52 c -1.824,0 -2.592,0 -3.552,0.288 -1.728,0.576 -3.168,2.592 -3.168,4.608001 0,1.632 0.768,3.072 2.112,4.032 1.056,0.768 2.016,0.96 4.608,0.96 h 1.152 v 38.016 h -1.152 c -2.4,0 -3.36,0.192 -4.224,0.768 -1.536,0.864 -2.496,2.496 -2.496,4.224 0,3.264 2.304,4.992 6.72,4.992 h 11.52 z"
         style="font-weight:bold;font-family:'Nimbus Mono PS';-inkscape-font-specification:'Nimbus Mono PS Bold';text-align:center;text-anchor:middle"
         id="path836" />
      <path
         d="m 449.55115,118.6913 c 0,-4.416 -1.536,-6.432 -4.992,-6.432 -2.112,0 -3.168,0.768 -3.84,2.592 -3.648,-1.728 -8.352,-2.592 -13.632,-2.592 -14.688,0 -24.96,9.312 -24.96,22.656 0,5.664 2.016,10.56 5.952,14.304 4.8,4.512 10.848,6.432 20.256,6.432 7.104,0 13.248,-1.056 17.184,-2.976 4.224,-2.016 6.432,-4.512 6.432,-7.104 0,-2.688 -2.304,-4.992 -5.184,-4.992 -1.248,0 -2.208,0.384 -3.168,1.152 -3.84,3.168 -6.912,4.032 -14.592,4.032 -11.04,0 -16.512,-3.648 -16.512,-10.848 0,-7.776 5.76,-12.768 14.688,-12.768 4.128,0 7.488,0.768 9.888,2.304 1.152,0.672 1.728,1.44 2.016,2.976 0.48,2.112 0.768,2.688 1.536,3.36 0.864,0.768 2.4,1.344 3.744,1.344 1.632,0 3.168,-0.768 4.224,-2.016 0.768,-0.96 0.96,-1.92 0.96,-4.416 z"
         style="font-weight:bold;font-family:'Nimbus Mono PS';-inkscape-font-specification:'Nimbus Mono PS Bold';text-align:center;text-anchor:middle"
         id="path838" />
      <path
         d="m 474.031,96.323299 h -11.52 c -1.92,0 -2.592,0 -3.552,0.288 -1.824,0.672 -3.168,2.592 -3.168,4.608001 0,1.632 0.768,3.072 2.112,4.032 0.96,0.768 2.016,0.96 4.608,0.96 h 1.152 v 38.112 h -0.192 c -2.4,0 -3.36,0.096 -4.224,0.672 -1.536,0.96 -2.496,2.592 -2.496,4.224 0,1.632 0.768,3.072 2.112,4.032 0.96,0.672 2.304,0.96 4.608,0.96 h 10.752 c 2.112,0 3.456,-0.192 4.32,-0.672 1.536,-0.96 2.496,-2.592 2.496,-4.32 0,-1.536 -0.768,-2.976 -2.208,-4.032 -0.96,-0.768 -1.92,-0.864 -4.608,-0.864 h -0.192 v -16.224 c 5.376,-4.992 7.296,-5.952 11.712,-5.952 2.88,0 4.704,0.48 6.144,1.632 1.536,1.248 1.92,2.208 1.92,5.28 v 15.264 h -0.192 c -2.496,0 -3.36,0.096 -4.32,0.672 -1.536,0.96 -2.496,2.496 -2.496,4.224 0,1.632 0.768,3.072 2.208,4.032 0.96,0.672 2.208,0.96 4.608,0.96 h 10.752 c 4.512,0 6.72,-1.632 6.72,-4.992 0,-1.536 -0.768,-3.072 -2.112,-4.032 -1.056,-0.672 -1.92,-0.864 -4.608,-0.864 h -0.192 v -16.512 c 0,-9.312 -7.008,-15.552 -17.376,-15.552 -4.8,0 -9.312,1.824 -12.768,5.088 z"
         style="font-weight:bold;font-family:'Nimbus Mono PS';-inkscape-font-specification:'Nimbus Mono PS Bold';text-align:center;text-anchor:middle"
         id="path840" />
      <path
         d="m 549.39086,154.2113 h 11.616 c 4.512,0 6.72,-1.632 6.72,-4.992 0,-1.536 -0.768,-3.072 -2.112,-4.032 -1.056,-0.672 -1.92,-0.864 -4.608,-0.864 h -1.152 v -18.144 c 0,-8.736 -7.2,-13.92 -19.296,-13.92 -4.896,0 -11.904,1.152 -16.608,2.688 -2.112,0.768 -3.168,2.208 -3.168,4.32 0,2.784 2.208,4.992 4.992,4.992 0.96,0 2.304,-0.192 4.032,-0.576 4.608,-1.056 7.872,-1.536 11.136,-1.536 5.856,0 8.448,1.248 8.448,4.032 v 1.728 c -3.36,-0.576 -6.528,-0.864 -9.696,-0.864 -8.544,0 -15.168,2.4 -19.68,7.104 -2.4,2.496 -3.84,5.856 -3.84,8.832 0,7.008 7.968,12.672 17.856,12.672 5.28,0 10.848,-1.152 15.36,-3.264 z m 0.096,-12.96 c -5.184,2.976 -10.368,4.512 -15.552,4.512 -3.744,0 -6.816,-1.44 -6.816,-3.168 0,-1.344 1.152,-2.784 3.072,-4.032 2.592,-1.632 5.28,-2.304 9.12,-2.304 3.168,0 6.048,0.288 10.176,0.96 z"
         style="font-weight:bold;font-family:'Nimbus Mono PS';-inkscape-font-specification:'Nimbus Mono PS Bold';text-align:center;text-anchor:middle"
         id="path842" />
      <path
         d="m 604.11071,113.4113 h -17.472 c -2.592,0 -3.36,0.096 -4.32,0.672 -1.536,0.96 -2.496,2.496 -2.496,4.224 0,3.36 2.304,4.992 6.816,4.992 h 7.104 v 21.024 h -11.328 c -2.496,0 -3.264,0.096 -4.224,0.672 -1.536,0.96 -2.496,2.592 -2.496,4.224 0,3.264 2.304,4.992 6.72,4.992 h 33.024 c 4.416,0 6.72,-1.728 6.72,-4.992 0,-1.536 -0.768,-2.976 -2.112,-3.936 -1.056,-0.768 -2.016,-0.96 -4.608,-0.96 h -11.328 z m -1.344,-16.992001 h -12.096 V 106.7873 h 12.096 z"
         style="font-weight:bold;font-family:'Nimbus Mono PS';-inkscape-font-specification:'Nimbus Mono PS Bold';text-align:center;text-anchor:middle"
         id="path844" />
      <path
         d="m 646.83056,113.4113 h -9.408 c -2.016,0 -2.688,0.096 -3.552,0.384 -1.824,0.576 -3.264,2.592 -3.264,4.608 0,1.536 0.768,3.072 2.112,4.032 0.96,0.576 1.632,0.768 3.744,0.864 v 21.024 h -0.192 c -2.4,0 -3.36,0.096 -4.224,0.672 -1.536,0.864 -2.496,2.592 -2.496,4.224 0,1.536 0.768,3.072 2.112,4.032 0.96,0.672 2.208,0.96 4.608,0.96 h 10.752 c 4.416,0 6.72,-1.728 6.72,-4.992 0,-1.536 -0.768,-2.976 -2.112,-4.032 -1.056,-0.672 -1.92,-0.864 -4.608,-0.864 h -0.192 v -16.128 c 4.32,-4.512 7.296,-6.048 11.616,-6.048 5.76,0 8.256,1.92 8.256,6.24 v 15.936 c -3.648,0 -5.856,1.824 -5.856,4.896 0,3.36 2.304,4.992 6.816,4.992 h 8.544 c 4.416,0 6.72,-1.632 6.72,-4.992 0,-1.536 -0.768,-3.072 -2.112,-4.032 -0.96,-0.576 -1.632,-0.768 -3.744,-0.864 v -16.32 c 0,-5.472 -1.92,-9.504 -5.856,-12.288 -3.168,-2.304 -7.2,-3.456 -11.712,-3.456 -5.088,0 -8.256,1.248 -12.672,5.088 z"
         style="font-weight:bold;font-family:'Nimbus Mono PS';-inkscape-font-specification:'Nimbus Mono PS Bold';text-align:center;text-anchor:middle"
         id="path846" />
      <path
         d="m 216.94373,242.61532 c 0,-2.496 -0.096,-3.168 -0.672,-4.128 -0.864,-1.44 -2.592,-2.304 -4.416,-2.304 -1.92,0 -2.976,0.768 -3.936,2.88 -3.168,-1.824 -7.488,-2.88 -12.384,-2.88 -12.096,0 -21.12,7.104 -21.12,16.512 0,5.376 3.072,10.368 8.064,13.056 3.168,1.728 6.144,2.592 12.576,3.648 6.336,1.152 7.872,1.536 9.984,2.496 1.92,0.96 3.168,2.688 3.168,4.416 0,3.744 -5.376,6.624 -12.288,6.624 -6.144,0 -12.096,-2.592 -13.056,-5.664 -0.768,-2.496 -0.768,-2.496 -1.44,-3.264 -0.96,-0.864 -2.304,-1.344 -3.744,-1.344 -1.632,0 -3.168,0.768 -4.224,2.016 -0.672,0.96 -0.96,2.016 -0.96,4.416 v 6.048 c 0,4.32 1.728,6.432 5.184,6.432 1.632,0 2.496,-0.48 4.032,-2.112 4.896,2.4 9.696,3.456 14.88,3.456 13.344,0 22.368,-6.624 22.368,-16.416 0,-4.896 -1.92,-8.736 -5.76,-11.712 -3.072,-2.304 -6.816,-3.648 -15.264,-5.088 -7.296,-1.344 -7.584,-1.44 -9.504,-2.4 -1.92,-0.864 -3.264,-2.88 -3.264,-4.704 0,-3.648 4.608,-6.528 10.464,-6.528 5.856,0 10.176,2.4 11.04,5.856 0.672,3.072 0.672,3.072 1.44,3.84 0.864,0.864 2.304,1.44 3.744,1.44 1.632,0 3.072,-0.768 4.128,-2.016 0.768,-1.056 0.96,-1.824 0.96,-4.416 z"
         style="font-weight:bold;font-family:'Nimbus Mono PS';-inkscape-font-specification:'Nimbus Mono PS Bold';text-align:center;text-anchor:middle"
         id="path848" />
      <path
         d="m 247.37559,291.09532 -5.088,9.504 h -9.408 c -2.4,0 -3.264,0.192 -4.224,0.672 -1.536,0.864 -2.496,2.592 -2.496,4.32 0,1.536 0.768,2.976 2.112,3.936 0.96,0.768 2.208,0.96 4.608,0.96 h 20.64 c 2.208,0 3.36,-0.192 4.224,-0.672 1.536,-0.96 2.496,-2.592 2.496,-4.32 0,-1.536 -0.768,-3.072 -2.112,-3.936 -1.056,-0.768 -1.92,-0.96 -4.416,-0.96 l 21.696,-39.84 c 3.264,-0.384 5.088,-2.112 5.088,-4.896 0,-1.632 -0.768,-3.072 -2.112,-4.032 -1.056,-0.768 -2.016,-0.96 -4.608,-0.96 h -8.832 c -2.016,0 -2.688,0.096 -3.552,0.384 -1.824,0.576 -3.264,2.592 -3.264,4.608 0,1.536 0.768,3.072 2.112,4.032 0.96,0.576 1.632,0.768 3.744,0.864 l -10.752,19.392 -10.464,-19.392 c 3.552,-0.192 5.472,-2.016 5.472,-4.896 0,-1.632 -0.768,-3.168 -2.112,-4.128 -0.96,-0.672 -2.016,-0.864 -4.608,-0.864 h -8.64 c -1.92,0 -2.592,0.096 -3.456,0.384 -1.92,0.576 -3.264,2.592 -3.264,4.608 0,2.688 1.728,4.416 4.8,4.896 z"
         style="font-weight:bold;font-family:'Nimbus Mono PS';-inkscape-font-specification:'Nimbus Mono PS Bold';text-align:center;text-anchor:middle"
         id="path850" />
      <path
         d="m 301.23144,250.87132 h -9.408 c -2.016,0 -2.688,0.096 -3.552,0.384 -1.824,0.576 -3.264,2.592 -3.264,4.608 0,1.536 0.768,3.072 2.112,4.032 0.96,0.576 1.632,0.768 3.744,0.864 v 21.024 h -0.192 c -2.4,0 -3.36,0.096 -4.224,0.672 -1.536,0.864 -2.496,2.592 -2.496,4.224 0,1.536 0.768,3.072 2.112,4.032 0.96,0.672 2.208,0.96 4.608,0.96 h 10.752 c 4.416,0 6.72,-1.728 6.72,-4.992 0,-1.536 -0.768,-2.976 -2.112,-4.032 -1.056,-0.672 -1.92,-0.864 -4.608,-0.864 h -0.192 v -16.128 c 4.32,-4.512 7.296,-6.048 11.616,-6.048 5.76,0 8.256,1.92 8.256,6.24 v 15.936 c -3.648,0 -5.856,1.824 -5.856,4.896 0,3.36 2.304,4.992 6.816,4.992 h 8.544 c 4.416,0 6.72,-1.632 6.72,-4.992 0,-1.536 -0.768,-3.072 -2.112,-4.032 -0.96,-0.576 -1.632,-0.768 -3.744,-0.864 v -16.32 c 0,-5.472 -1.92,-9.504 -5.856,-12.288 -3.168,-2.304 -7.2,-3.456 -11.712,-3.456 -5.088,0 -8.256,1.248 -12.672,5.088 z"
         style="font-weight:bold;font-family:'Nimbus Mono PS';-inkscape-font-specification:'Nimbus Mono PS Bold';text-align:center;text-anchor:middle"
         id="path852" />
      <path
         d="m 391.95129,256.15132 c 0,-4.416 -1.536,-6.432 -4.992,-6.432 -2.112,0 -3.168,0.768 -3.84,2.592 -3.648,-1.728 -8.352,-2.592 -13.632,-2.592 -14.688,0 -24.96,9.312 -24.96,22.656 0,5.664 2.016,10.56 5.952,14.304 4.8,4.512 10.848,6.432 20.256,6.432 7.104,0 13.248,-1.056 17.184,-2.976 4.224,-2.016 6.432,-4.512 6.432,-7.104 0,-2.688 -2.304,-4.992 -5.184,-4.992 -1.248,0 -2.208,0.384 -3.168,1.152 -3.84,3.168 -6.912,4.032 -14.592,4.032 -11.04,0 -16.512,-3.648 -16.512,-10.848 0,-7.776 5.76,-12.768 14.688,-12.768 4.128,0 7.488,0.768 9.888,2.304 1.152,0.672 1.728,1.44 2.016,2.976 0.48,2.112 0.768,2.688 1.536,3.36 0.864,0.768 2.4,1.344 3.744,1.344 1.632,0 3.168,-0.768 4.224,-2.016 0.768,-0.96 0.96,-1.92 0.96,-4.416 z"
         style="font-weight:bold;font-family:'Nimbus Mono PS';-inkscape-font-specification:'Nimbus Mono PS Bold';text-align:center;text-anchor:middle"
         id="path854" />
      <path
         d="m 431.21515,247.41532 h 9.696 v 8.064 c 0,2.304 0.192,3.264 0.768,4.128 0.96,1.536 2.592,2.4 4.416,2.4 1.632,0 3.168,-0.768 4.224,-2.016 0.768,-1.056 0.96,-1.824 0.96,-4.512 v -17.952 h -50.304 v 17.952 c 0,2.304 0.192,3.264 0.768,4.128 0.96,1.536 2.688,2.4 4.416,2.4 1.632,0 3.168,-0.768 4.224,-2.016 0.768,-1.056 0.96,-1.824 0.96,-4.512 v -8.064 h 9.504 v 34.368 h -5.856 c -2.496,0 -3.264,0.096 -4.224,0.672 -1.536,0.96 -2.496,2.592 -2.496,4.224 0,1.536 0.864,3.168 2.112,4.032 0.96,0.672 2.4,0.96 4.608,0.96 h 22.176 c 4.416,0 6.72,-1.632 6.72,-4.992 0,-1.536 -0.768,-2.976 -2.112,-3.936 -1.056,-0.768 -2.016,-0.96 -4.608,-0.96 h -5.952 z"
         style="font-weight:bold;font-family:'Nimbus Mono PS';-inkscape-font-specification:'Nimbus Mono PS Bold';text-align:center;text-anchor:middle"
         id="path856" />
      <path
         d="m 484.015,249.71932 c -14.4,0 -25.44,9.408 -25.44,21.696 0,12.192 11.04,21.696 25.152,21.696 14.112,0 25.152,-9.504 25.152,-21.696 0,-12.096 -11.04,-21.696 -24.864,-21.696 z m -0.48,9.888 c 8.544,0 14.976,5.088 14.976,11.808 0,6.624 -6.432,11.808 -14.784,11.808 -8.352,0 -14.784,-5.184 -14.784,-11.808 0,-6.624 6.432,-11.808 14.592,-11.808 z"
         style="font-weight:bold;font-family:'Nimbus Mono PS';-inkscape-font-specification:'Nimbus Mono PS Bold';text-align:center;text-anchor:middle"
         id="path858" />
      <path
         d="m 541.61486,249.71932 c -14.4,0 -25.44,9.408 -25.44,21.696 0,12.192 11.04,21.696 25.152,21.696 14.112,0 25.152,-9.504 25.152,-21.696 0,-12.096 -11.04,-21.696 -24.864,-21.696 z m -0.48,9.888 c 8.544,0 14.976,5.088 14.976,11.808 0,6.624 -6.432,11.808 -14.784,11.808 -8.352,0 -14.784,-5.184 -14.784,-11.808 0,-6.624 6.432,-11.808 14.592,-11.808 z"
         style="font-weight:bold;font-family:'Nimbus Mono PS';-inkscape-font-specification:'Nimbus Mono PS Bold';text-align:center;text-anchor:middle"
         id="path860" />
      <path
         d="m 604.11071,233.78332 h -17.472 c -2.496,0 -3.36,0.192 -4.32,0.672 -1.536,0.96 -2.496,2.592 -2.496,4.32 0,1.632 0.768,3.072 2.208,4.032 0.96,0.768 2.112,0.96 4.608,0.96 h 7.104 v 38.016 h -11.328 c -2.496,0 -3.264,0.096 -4.224,0.672 -1.536,0.96 -2.496,2.592 -2.496,4.224 0,3.264 2.304,4.992 6.72,4.992 h 33.024 c 4.416,0 6.72,-1.728 6.72,-4.992 0,-1.536 -0.768,-2.976 -2.112,-3.936 -1.056,-0.768 -2.016,-0.96 -4.608,-0.96 h -11.328 z"
         style="font-weight:bold;font-family:'Nimbus Mono PS';-inkscape-font-specification:'Nimbus Mono PS Bold';text-align:center;text-anchor:middle"
         id="path862" />
    </g>
  </g>
</svg>
